<svg width="200" height="24" viewBox="0 0 200 24" fill="none" xmlns="http://www.w3.org/2000/svg">
<g clip-path="url(#clip0_620_4)">
<path d="M3.60412 15.0035C5.32037 16.6626 7.89474 17.9784 10.984 17.9784C12.2998 17.9784 13.5011 17.5207 13.5011 16.6626C13.5011 15.7472 12.5286 15.3468 10.2975 14.8891C6.52174 14.2026 0.743707 13.2873 0.743707 7.56647C0.743707 3.67631 3.94737 0.129395 10.2403 0.129395C13.9588 0.129395 17.3341 1.21635 19.9657 3.33306L16.2471 8.25296C14.2449 6.76555 11.6705 5.96463 9.83982 5.96463C8.12357 5.96463 7.72311 6.59393 7.72311 7.16601C7.72311 8.08134 8.63844 8.36738 11.0984 8.76784C14.8741 9.39713 20.4805 10.5413 20.4805 15.8045C20.4805 20.8388 16.762 23.7564 10.5835 23.7564C5.77803 23.8136 2.45995 22.3834 0 20.1523L3.60412 15.0035Z" fill="#ED186D"/>
<path d="M26.2014 0.529785H38.4439C43.8215 0.529785 46.6819 4.0767 46.6819 8.36731C46.6819 12.6007 43.8215 16.0332 38.4439 16.0332H33.1808V23.3559H26.2014V0.529785ZM37.5286 6.25061H33.1808V10.2552H37.5858C38.73 10.2552 39.7025 9.45427 39.7025 8.2529C39.6453 7.05153 38.73 6.25061 37.5286 6.25061Z" fill="#ED186D"/>
<path d="M54.2334 15.0035C55.9497 16.6626 58.524 17.9784 61.6133 17.9784C62.9291 17.9784 64.1304 17.5207 64.1304 16.6626C64.1304 15.7472 63.1579 15.3468 60.9268 14.8891C57.151 14.2026 51.373 13.2873 51.373 7.56647C51.373 3.67631 54.5767 0.129395 60.8696 0.129395C64.5881 0.129395 67.9634 1.21635 70.595 3.33306L66.8764 8.25296C64.8741 6.76555 62.2998 5.96463 60.4691 5.96463C58.7529 5.96463 58.3524 6.59393 58.3524 7.16601C58.3524 8.08134 59.2677 8.36738 61.7277 8.76784C65.5034 9.39713 71.1098 10.5413 71.1098 15.8045C71.1098 20.8388 67.3913 23.7564 61.2128 23.7564C56.3501 23.7564 53.032 22.3262 50.5721 20.0951L54.2334 15.0035Z" fill="#ED186D"/>
<path d="M92.2197 17.7495H80.0343L77.746 23.356H75.5149L84.897 0.472656H87.357L96.7392 23.356H94.5652L92.2197 17.7495ZM80.6064 15.9761H91.5332L86.0984 2.41774L80.6064 15.9761Z" fill="black"/>
<path d="M102.918 18.7221C104.405 20.4383 106.808 22.0401 110.069 22.0401C114.76 22.0401 116.133 19.4086 116.133 17.4635C116.133 14.2598 113.101 13.3445 109.84 12.4864C106.236 11.5138 102.403 10.4841 102.403 6.25068C102.403 2.53214 105.778 0.129395 109.897 0.129395C113.33 0.129395 115.847 1.33077 117.677 3.33306L116.362 4.76326C114.703 2.76097 112.357 1.90285 109.783 1.90285C106.751 1.90285 104.405 3.67631 104.405 6.13626C104.405 8.82505 107.265 9.62596 110.355 10.4841C114.073 11.571 118.135 12.7152 118.135 17.3491C118.135 20.3239 116.19 23.8136 110.011 23.8136C106.236 23.8136 103.375 22.3262 101.659 20.1523L102.918 18.7221Z" fill="black"/>
<path d="M137.014 0.129395C140.789 0.129395 143.535 1.61681 145.652 4.01955L144.165 5.10651C142.563 3.16143 139.931 1.90285 137.014 1.90285C131.636 1.90285 127.46 5.96464 127.46 11.9715C127.46 17.8639 131.636 22.0401 137.014 22.0401C140.046 22.0401 142.449 20.5527 143.764 19.2369V13.745H135.126V11.9715H145.709V19.9807C143.707 22.269 140.618 23.8136 137.014 23.8136C130.606 23.8136 125.4 19.0081 125.4 11.9143C125.4 4.87768 130.606 0.129395 137.014 0.129395Z" fill="black"/>
<path d="M173.57 3.10416L165.217 23.4131H164.474L156.064 3.10416V23.4131H154.119V0.529785H157.037L164.817 19.5229L172.597 0.529785H175.572V23.4131H173.57V3.10416Z" fill="black"/>
<path d="M190.503 2.30324H183.009V0.529785H199.943V2.30324H192.449V23.4131H190.503V2.30324Z" fill="black"/>
</g>
<defs>
<clipPath id="clip0_620_4">
<rect width="200" height="23.7414" fill="white" transform="translate(0 0.129395)"/>
</clipPath>
</defs>
</svg>
